<svg width="12" height="7" viewBox="0 0 12 7" fill="none" xmlns="http://www.w3.org/2000/svg">
<path fill-rule="evenodd" clip-rule="evenodd" d="M0.881599 0.778572C0.919349 0.740726 0.964195 0.7107 1.01357 0.690212C1.06294 0.669725 1.11587 0.65918 1.16932 0.65918C1.22278 0.65918 1.27571 0.669725 1.32508 0.690212C1.37445 0.7107 1.4193 0.740726 1.45705 0.778572L6.04601 5.36834L10.635 0.778572C10.6727 0.740787 10.7176 0.710815 10.767 0.690366C10.8163 0.669917 10.8693 0.659392 10.9227 0.659392C10.9761 0.659392 11.029 0.669917 11.0784 0.690366C11.1278 0.710815 11.1726 0.740787 11.2104 0.778572C11.2482 0.816356 11.2782 0.861213 11.2986 0.910581C11.3191 0.959949 11.3296 1.01286 11.3296 1.0663C11.3296 1.11973 11.3191 1.17264 11.2986 1.22201C11.2782 1.27138 11.2482 1.31624 11.2104 1.35402L6.33373 6.2307C6.29598 6.26855 6.25113 6.29857 6.20176 6.31906C6.15239 6.33955 6.09946 6.35009 6.04601 6.35009C5.99255 6.35009 5.93962 6.33955 5.89025 6.31906C5.84088 6.29857 5.79603 6.26855 5.75828 6.2307L0.881599 1.35402C0.843754 1.31627 0.813727 1.27142 0.79324 1.22205C0.772753 1.17268 0.762207 1.11975 0.762207 1.0663C0.762207 1.01284 0.772753 0.959913 0.79324 0.91054C0.813727 0.861168 0.843754 0.816322 0.881599 0.778572Z" fill="#434651"/>
</svg>
