<svg width="131" height="70" viewBox="0 0 131 70" fill="none" xmlns="http://www.w3.org/2000/svg">
<path d="M6.256 66.16C5.44533 66.16 4.704 66.0213 4.032 65.744C3.36 65.4667 2.77867 65.072 2.288 64.56C1.79733 64.0373 1.41333 63.424 1.136 62.72C0.869333 62.0053 0.736 61.2267 0.736 60.384C0.736 59.5733 0.88 58.8213 1.168 58.128C1.456 57.4347 1.856 56.8267 2.368 56.304C2.88 55.7813 3.47733 55.376 4.16 55.088C4.84267 54.8 5.584 54.656 6.384 54.656C6.928 54.656 7.456 54.736 7.968 54.896C8.48 55.056 8.94933 55.28 9.376 55.568C9.80267 55.8453 10.16 56.1707 10.448 56.544L9.12 58C8.84267 57.712 8.55467 57.472 8.256 57.28C7.968 57.0773 7.664 56.928 7.344 56.832C7.03467 56.7253 6.71467 56.672 6.384 56.672C5.89333 56.672 5.42933 56.7627 4.992 56.944C4.56533 57.1253 4.192 57.3813 3.872 57.712C3.56267 58.0427 3.31733 58.4373 3.136 58.896C2.95467 59.344 2.864 59.8453 2.864 60.4C2.864 60.9653 2.94933 61.4773 3.12 61.936C3.30133 62.3947 3.552 62.7893 3.872 63.12C4.20267 63.4507 4.592 63.7067 5.04 63.888C5.49867 64.0587 6 64.144 6.544 64.144C6.896 64.144 7.23733 64.096 7.568 64C7.89867 63.904 8.20267 63.7707 8.48 63.6C8.768 63.4187 9.02933 63.2107 9.264 62.976L10.288 64.624C10.032 64.912 9.69067 65.1733 9.264 65.408C8.83733 65.6427 8.35733 65.8293 7.824 65.968C7.30133 66.096 6.77867 66.16 6.256 66.16ZM15.4975 66L12.0095 54.8H14.1855L16.1695 61.408C16.2335 61.6107 16.2922 61.8347 16.3455 62.08C16.3988 62.3253 16.4468 62.5707 16.4895 62.816C16.5322 63.0507 16.5695 63.2693 16.6015 63.472C16.6335 63.6747 16.6655 63.8453 16.6975 63.984L16.2655 63.968C16.3935 63.4667 16.4948 63.0613 16.5695 62.752C16.6442 62.4427 16.7082 62.1867 16.7615 61.984C16.8255 61.7707 16.8895 61.5733 16.9535 61.392L18.8415 56.56H20.6175L22.4575 61.392C22.5642 61.6907 22.6602 61.9787 22.7455 62.256C22.8308 62.5227 22.9002 62.7893 22.9535 63.056C23.0175 63.312 23.0762 63.5787 23.1295 63.856L22.7455 63.936C22.7882 63.68 22.8202 63.472 22.8415 63.312C22.8628 63.152 22.8842 63.008 22.9055 62.88C22.9268 62.752 22.9482 62.6293 22.9695 62.512C22.9908 62.384 23.0228 62.2347 23.0655 62.064C23.1188 61.8827 23.1828 61.6533 23.2575 61.376L25.2255 54.8H27.3855L23.8815 66H22.3775L19.5295 59.184L19.7215 59.248L17.0175 66H15.4975ZM34.1438 66L38.4318 54.8H39.8558L44.1118 66H42.7518L40.0158 58.736C39.9411 58.5333 39.8558 58.2987 39.7598 58.032C39.6744 57.7547 39.5784 57.472 39.4718 57.184C39.3758 56.8853 39.2798 56.5973 39.1838 56.32C39.0984 56.0427 39.0184 55.7973 38.9438 55.584H39.2638C39.1784 55.8507 39.0878 56.1227 38.9918 56.4C38.9064 56.6667 38.8158 56.9387 38.7198 57.216C38.6238 57.4827 38.5278 57.7493 38.4318 58.016C38.3358 58.2827 38.2398 58.5493 38.1438 58.816L35.4238 66H34.1438ZM35.9678 62.912L36.4318 61.696H41.7278L42.2398 62.912H35.9678ZM46.9574 66V54.8H51.3414C51.992 54.8 52.5787 54.9547 53.1014 55.264C53.6347 55.5627 54.056 55.9733 54.3654 56.496C54.6747 57.0187 54.8294 57.6107 54.8294 58.272C54.8294 58.8907 54.68 59.4507 54.3814 59.952C54.0827 60.4533 53.6774 60.8533 53.1654 61.152C52.6534 61.44 52.0774 61.584 51.4374 61.584H48.2054V66H46.9574ZM53.7894 66L50.9734 61.072L52.1734 60.656L55.2774 66H53.7894ZM48.2054 60.368H51.5494C51.944 60.368 52.2907 60.2773 52.5894 60.096C52.888 59.9147 53.1227 59.6693 53.2934 59.36C53.464 59.04 53.5494 58.6773 53.5494 58.272C53.5494 57.8347 53.448 57.4453 53.2454 57.104C53.0427 56.7627 52.76 56.496 52.3974 56.304C52.0454 56.112 51.64 56.016 51.1814 56.016H48.2054V60.368ZM58.3199 66V54.8H62.8639C63.5145 54.8 64.0745 54.9173 64.5439 55.152C65.0239 55.376 65.3919 55.7013 65.6479 56.128C65.9039 56.544 66.0319 57.04 66.0319 57.616C66.0319 58.2347 65.8559 58.768 65.5039 59.216C65.1519 59.6533 64.6719 59.9573 64.0639 60.128L64.0319 59.824C64.5545 59.92 65.0079 60.1067 65.3919 60.384C65.7759 60.6507 66.0745 60.9813 66.2879 61.376C66.5119 61.7707 66.6239 62.2133 66.6239 62.704C66.6239 63.2053 66.5385 63.6587 66.3679 64.064C66.1972 64.4693 65.9519 64.816 65.6319 65.104C65.3225 65.392 64.9439 65.616 64.4959 65.776C64.0585 65.9253 63.5679 66 63.0239 66H58.3199ZM59.5679 64.784H62.9279C63.4079 64.784 63.8239 64.704 64.1759 64.544C64.5385 64.3733 64.8159 64.1333 65.0079 63.824C65.2105 63.5147 65.3119 63.1573 65.3119 62.752C65.3119 62.368 65.2052 62.032 64.9919 61.744C64.7892 61.456 64.5012 61.232 64.1279 61.072C63.7652 60.912 63.3385 60.832 62.8479 60.832H59.5679V64.784ZM59.5679 59.616H62.7679C63.1519 59.616 63.4932 59.5413 63.7919 59.392C64.0905 59.232 64.3252 59.0187 64.4959 58.752C64.6665 58.4747 64.7519 58.1653 64.7519 57.824C64.7519 57.28 64.5652 56.8427 64.1919 56.512C63.8292 56.1813 63.3172 56.016 62.6559 56.016H59.5679V59.616ZM69.3263 66V64.816H71.1343V55.984H69.3263V54.8H74.1903V55.984H72.3823V64.816H74.1903V66H69.3263ZM79.7956 66V56.016H76.5956V54.8H84.3716V56.016H81.0436V66H79.7956ZM87.2824 66V54.8H91.6664C92.317 54.8 92.9037 54.9547 93.4264 55.264C93.9597 55.5627 94.381 55.9733 94.6904 56.496C94.9997 57.0187 95.1544 57.6107 95.1544 58.272C95.1544 58.8907 95.005 59.4507 94.7064 59.952C94.4077 60.4533 94.0024 60.8533 93.4904 61.152C92.9784 61.44 92.4024 61.584 91.7624 61.584H88.5304V66H87.2824ZM94.1144 66L91.2984 61.072L92.4984 60.656L95.6024 66H94.1144ZM88.5304 60.368H91.8744C92.269 60.368 92.6157 60.2773 92.9144 60.096C93.213 59.9147 93.4477 59.6693 93.6184 59.36C93.789 59.04 93.8744 58.6773 93.8744 58.272C93.8744 57.8347 93.773 57.4453 93.5704 57.104C93.3677 56.7627 93.085 56.496 92.7224 56.304C92.3704 56.112 91.965 56.016 91.5064 56.016H88.5304V60.368ZM97.3969 66L101.685 54.8H103.109L107.365 66H106.005L103.269 58.736C103.194 58.5333 103.109 58.2987 103.013 58.032C102.928 57.7547 102.832 57.472 102.725 57.184C102.629 56.8853 102.533 56.5973 102.437 56.32C102.352 56.0427 102.272 55.7973 102.197 55.584H102.517C102.432 55.8507 102.341 56.1227 102.245 56.4C102.16 56.6667 102.069 56.9387 101.973 57.216C101.877 57.4827 101.781 57.7493 101.685 58.016C101.589 58.2827 101.493 58.5493 101.397 58.816L98.6769 66H97.3969ZM99.2209 62.912L99.6849 61.696H104.981L105.493 62.912H99.2209ZM114.858 66.16C114.037 66.16 113.274 66.016 112.57 65.728C111.866 65.44 111.247 65.04 110.714 64.528C110.181 64.016 109.765 63.4133 109.466 62.72C109.178 62.016 109.034 61.2533 109.034 60.432C109.034 59.6107 109.178 58.8533 109.466 58.16C109.765 57.456 110.17 56.848 110.682 56.336C111.205 55.824 111.813 55.4293 112.506 55.152C113.21 54.864 113.962 54.72 114.762 54.72C115.327 54.72 115.882 54.8 116.426 54.96C116.981 55.12 117.482 55.344 117.93 55.632C118.378 55.92 118.741 56.2453 119.018 56.608L118.186 57.456C117.887 57.1467 117.551 56.88 117.178 56.656C116.805 56.432 116.41 56.256 115.994 56.128C115.589 56 115.183 55.936 114.778 55.936C114.149 55.936 113.562 56.048 113.018 56.272C112.485 56.496 112.015 56.8107 111.61 57.216C111.205 57.6107 110.89 58.0853 110.666 58.64C110.442 59.184 110.33 59.7813 110.33 60.432C110.33 61.0613 110.442 61.6533 110.666 62.208C110.901 62.752 111.226 63.232 111.642 63.648C112.069 64.0533 112.559 64.368 113.114 64.592C113.669 64.816 114.266 64.928 114.906 64.928C115.407 64.928 115.877 64.8533 116.314 64.704C116.762 64.5547 117.151 64.3467 117.482 64.08C117.813 63.8027 118.069 63.4827 118.25 63.12C118.431 62.7573 118.522 62.368 118.522 61.952V61.392L118.778 61.712H114.842V60.48H119.77C119.781 60.5653 119.791 60.6667 119.802 60.784C119.813 60.8907 119.818 61.0027 119.818 61.12C119.829 61.2267 119.834 61.328 119.834 61.424C119.834 62.1173 119.706 62.7573 119.45 63.344C119.194 63.92 118.837 64.4213 118.378 64.848C117.93 65.264 117.407 65.5893 116.81 65.824C116.213 66.048 115.562 66.16 114.858 66.16ZM122.917 66V54.8H129.701V56.016H124.165V64.784H129.669V66H122.917ZM123.493 60.848V59.632H128.805V60.848H123.493Z" fill="#ffffff"/>
<path d="M35.6133 19.7256C35.6133 36.2148 43.6653 38.8877 43.6653 39.0232C34.7436 36.9398 29 29.556 29 19.7256C29 9.85011 34.8311 1.93016 43.8404 0.337161C43.8404 0.518427 35.6133 4.23321 35.6133 19.7256ZM60.1298 39.112C59.1206 35.6606 52.5895 38.888 50.0767 39.112V38.9588C57.7432 35.2624 61.0369 23.3195 61.0369 23.1152L60.1298 39.112ZM60.2877 4.62311C59.9784 9.0486 60.9637 15.7895 61.0331 16.2552C60.911 15.5985 57.5986 3.24209 50.0767 0.437642V0.284417C58.4935 0.321805 53.1384 0.294432 62.1617 0.200961C62.1617 0.200961 60.5114 1.42376 60.2877 4.62311ZM61.0331 16.2548C61.0353 16.2679 61.0369 16.2775 61.0369 16.2809C61.0369 16.2812 61.0356 16.2719 61.0331 16.2548ZM92.3613 0H103C103 0 101.043 0.900654 100.068 4.03158C99.9013 4.62311 85.8459 39.9997 85.8459 39.9997L82.7459 31.1113L82.7901 31.2021L93.4114 4.25824C94.068 1.58533 92.3613 0 92.3613 0ZM83.4025 4.03158C83.3153 4.25791 69.1808 39.9997 69.1808 39.9997L66.0808 31.0656L76.7463 4.25791C77.4029 1.58533 75.6963 0 75.6963 0H86.3346C86.3346 0 84.5927 0.677327 83.4025 4.03158Z" fill="url(#paint0_linear_21_16492)"/>
<defs>
<linearGradient id="paint0_linear_21_16492" x1="29" y1="7.5" x2="96" y2="40" gradientUnits="userSpaceOnUse">
<stop stop-color="white"/>
<stop offset="1" stop-color="#D1B9FF"/>
</linearGradient>
</defs>
</svg>
